<?xml version="1.0" standalone="no"?>
<svg viewBox="0 0 200 200" xmlns="http://www.w3.org/2000/svg">
  <path fill="#0F62FE" d="M24.6,-32C35.7,-36.3,50.9,-37.2,52.1,-31.4C53.3,-25.5,40.4,-12.7,35.1,-3.1C29.7,6.5,31.8,13,34.6,25.8C37.4,38.6,40.8,57.7,35.2,68.5C29.5,79.4,14.8,82,-0.7,83.2C-16.1,84.4,-32.3,84.1,-41.5,75.3C-50.8,66.6,-53.1,49.3,-50.3,35.3C-47.5,21.4,-39.5,10.7,-36.4,1.8C-33.3,-7.1,-35,-14.1,-36.7,-26.2C-38.5,-38.3,-40.2,-55.5,-34.1,-54C-27.9,-52.6,-14,-32.5,-3.6,-26.3C6.8,-20.1,13.6,-27.7,24.6,-32Z" transform="translate(100 100)" />
</svg>
